<?xml version="1.0" standalone="no"?>
<!DOCTYPE svg PUBLIC "-//W3C//DTD SVG 20010904//EN"
 "http://www.w3.org/TR/2001/REC-SVG-20010904/DTD/svg10.dtd">
<svg version="1.0" xmlns="http://www.w3.org/2000/svg"
 width="400.000000pt" height="400.000000pt" viewBox="0 0 400.000000 400.000000"
 preserveAspectRatio="xMidYMid meet">
<metadata>
Created by potrace 1.14, written by Peter Selinger 2001-2017
</metadata>
<g transform="translate(0.000000,400.000000) scale(0.100000,-0.100000)"
fill="#000000" stroke="none">
<path d="M1859 3980 c-516 -39 -1006 -283 -1347 -670 -121 -138 -246 -328
-306 -467 -18 -40 -18 -43 0 -60 17 -17 17 -18 -3 -21 -34 -5 -50 -32 -87
-142 -68 -204 -88 -327 -93 -587 -3 -138 -2 -233 4 -233 5 0 7 -15 5 -32 -5
-49 43 -274 89 -411 102 -306 289 -596 531 -821 l91 -85 26 17 c14 10 43 27
64 37 22 11 54 37 73 58 19 20 36 37 38 37 2 0 -2 -17 -9 -37 -17 -49 -80
-112 -106 -106 -10 3 -19 0 -19 -6 0 -6 -7 -11 -15 -11 -32 0 -11 -21 88 -88
301 -205 608 -312 981 -343 236 -19 499 12 737 87 173 55 239 96 280 176 l19
38 -35 36 c-20 19 -33 39 -30 45 4 5 1 9 -6 9 -7 0 -4 9 9 23 11 12 37 49 56
81 l36 60 0 -51 c0 -28 7 -70 15 -93 8 -23 15 -71 15 -106 0 -35 3 -64 8 -64
15 1 148 95 147 105 -1 16 -46 104 -56 111 -5 3 -9 13 -9 23 0 10 -9 26 -20
36 -11 10 -18 20 -15 23 2 3 0 13 -6 23 -11 22 -6 24 23 8 11 -6 67 -12 125
-12 l105 -2 29 -33 30 -33 66 63 c258 246 458 592 547 947 47 185 78 513 51
540 -6 6 -35 15 -64 21 -70 13 -121 51 -113 82 3 13 8 25 11 28 26 22 41 79
41 154 0 62 5 91 20 121 11 22 20 47 20 57 0 9 4 19 10 23 11 7 2 34 -17 53
-7 7 -13 28 -13 46 0 73 -145 368 -248 505 -23 31 -26 33 -33 15 -4 -10 -8
-35 -8 -54 -1 -41 19 -64 92 -111 29 -19 47 -38 47 -50 0 -10 4 -19 10 -19 5
0 12 -10 15 -23 7 -25 -28 -117 -45 -117 -15 0 -12 -26 6 -61 21 -42 25 -66
14 -95 -13 -33 -64 -34 -81 -1 -13 23 -19 29 -94 87 -25 19 -45 42 -45 51 0
28 -30 77 -68 110 -49 43 -59 65 -64 141 -3 55 -9 71 -36 104 -18 21 -32 45
-32 54 0 13 -1 13 -10 0 -7 -11 -10 -7 -10 17 0 17 -6 58 -14 90 -8 32 -16 84
-19 115 -3 52 -1 59 20 73 13 9 23 22 23 29 0 33 -248 204 -415 286 -313 154
-681 226 -1026 200z m-16 -447 c-7 -2 -19 -2 -25 0 -7 3 -2 5 12 5 14 0 19 -2
13 -5z m-173 -13 c-8 -5 -19 -10 -25 -10 -5 0 -3 5 5 10 8 5 20 10 25 10 6 0
3 -5 -5 -10z m410 0 c13 -9 13 -10 0 -10 -8 0 -22 5 -30 10 -13 9 -13 10 0 10
8 0 22 -5 30 -10z m160 -40 c18 -12 2 -12 -25 0 -13 6 -15 9 -5 9 8 0 22 -4
30 -9z m107 -33 c4 -6 -4 -7 -23 -3 -41 10 -51 24 -14 18 17 -2 33 -9 37 -15z
m671 -69 c23 -32 42 -63 42 -69 0 -6 9 -18 19 -27 11 -10 23 -34 27 -54 6 -34
3 -39 -27 -58 -43 -26 -95 -23 -132 7 -16 13 -37 23 -47 23 -10 0 -22 5 -25
10 -3 6 2 10 12 10 11 0 14 3 7 8 -6 4 -17 25 -24 47 -7 22 -21 53 -31 70 -11
16 -19 42 -19 56 0 38 54 59 113 45 36 -8 50 -19 85 -68z m-625 55 c-7 -2 -19
-2 -25 0 -7 3 -2 5 12 5 14 0 19 -2 13 -5z m-1489 -298 c-4 -8 -11 -12 -16 -9
-6 4 -5 10 3 15 19 12 19 11 13 -6z m2041 -45 c16 -17 16 -20 3 -15 -9 4 -19
13 -22 21 -7 19 -2 18 19 -6z m-2540 -160 c3 -5 -3 -10 -15 -10 -12 0 -18 5
-15 10 3 6 10 10 15 10 5 0 12 -4 15 -10z m2494 -38 c33 -24 38 -42 13 -49
-12 -3 -22 -15 -24 -27 -2 -15 -10 -21 -28 -21 -26 0 -72 -33 -64 -46 2 -5 -9
-18 -26 -30 -16 -13 -30 -27 -30 -31 0 -11 -67 -78 -78 -78 -5 0 -14 11 -20
25 -6 14 -20 25 -30 25 -10 0 -27 7 -38 16 -10 8 -13 13 -6 9 6 -3 12 -2 12 3
0 14 -27 23 -45 16 -11 -5 -13 -2 -9 10 3 9 1 16 -5 16 -6 0 -11 -4 -11 -10 0
-18 -18 -11 -23 9 -4 17 -14 20 -65 20 -33 0 -70 4 -81 11 -15 7 -27 8 -40 0
-36 -19 -141 -9 -109 11 10 7 10 9 1 9 -35 0 -4 29 70 65 l82 40 120 -3 c202
-6 214 -5 227 6 42 34 162 36 207 4z m31 -67 c-7 -9 -15 -13 -17 -11 -7 7 7
26 19 26 6 0 6 -6 -2 -15z m118 -138 c24 -26 52 -87 52 -116 0 -17 -5 -18 -39
-14 -44 6 -144 -24 -134 -40 3 -5 0 -8 -8 -5 -8 3 -20 -1 -27 -9 -19 -18 -34
-16 -30 4 2 9 23 32 48 51 41 31 49 34 101 30 42 -3 56 -1 52 8 -6 16 -50 28
-92 25 -37 -3 -36 0 8 56 31 39 41 40 69 10z m-813 -121 c19 -8 35 -17 35 -18
0 -2 -15 -5 -32 -6 -18 -1 -52 -4 -75 -7 -38 -4 -43 -3 -43 14 0 15 8 21 38
24 20 2 38 4 40 5 1 1 18 -5 37 -12z m-135 -16 c0 -5 -4 -10 -10 -10 -5 0 -10
5 -10 10 0 6 5 10 10 10 6 0 10 -4 10 -10z m650 -39 c5 -11 10 -35 10 -55 0
-33 20 -66 41 -66 11 0 29 41 22 53 -2 4 0 7 6 7 5 0 9 -12 8 -26 -3 -35 20
-49 57 -35 24 10 26 14 15 27 -11 14 -11 18 4 29 9 7 17 17 17 23 0 19 90 44
111 31 11 -7 9 -10 -8 -15 -13 -4 -23 -11 -23 -18 0 -23 38 -68 71 -84 24 -12
43 -36 69 -84 39 -74 155 -207 163 -186 3 9 10 6 21 -9 9 -12 22 -28 29 -35 6
-7 19 -26 26 -41 8 -15 40 -50 71 -77 64 -56 96 -112 105 -185 8 -67 34 -145
55 -168 25 -26 31 -69 14 -88 -10 -12 -38 -18 -92 -21 -89 -5 -133 -23 -143
-58 -3 -14 -12 -68 -19 -120 -7 -52 -22 -122 -35 -155 -13 -33 -30 -85 -39
-115 -9 -30 -25 -65 -35 -77 -16 -20 -22 -21 -45 -10 -14 7 -26 17 -26 24 0
13 -38 28 -47 19 -4 -3 -12 -1 -20 5 -7 6 -26 9 -43 6 -16 -4 -32 -2 -35 3 -3
6 -30 10 -59 10 -46 0 -124 16 -226 46 -14 4 -30 14 -36 23 -9 11 -15 12 -25
4 -8 -6 -23 -13 -34 -16 -19 -4 -19 -5 1 -6 12 0 27 -7 33 -14 9 -12 -2 -13
-61 -10 -40 2 -74 5 -76 7 -2 2 3 13 10 25 9 14 23 21 45 21 18 0 33 5 33 10
0 17 -62 11 -75 -7 -16 -22 -68 -21 -91 1 -14 15 -15 19 -3 27 18 11 39 11 39
0 0 -5 -6 -12 -12 -15 -7 -3 5 -4 27 -3 51 3 57 30 7 35 -18 2 -30 8 -27 13 8
12 -9 11 -39 -3 -23 -10 -29 -8 -48 13 -18 19 -22 35 -21 69 2 34 0 41 -9 32
-20 -20 -36 -14 -52 18 -8 17 -10 30 -5 30 6 0 7 5 4 10 -4 6 -4 17 -1 25 8
23 59 -3 53 -27 -3 -10 -1 -18 4 -18 5 0 9 4 9 10 0 5 6 7 13 4 8 -3 20 2 27
11 14 17 65 20 75 5 4 -6 10 -8 15 -5 12 8 41 -6 34 -16 -3 -5 4 -9 15 -9 33
0 49 -10 44 -29 -5 -19 32 -41 69 -41 12 0 30 -7 40 -17 14 -13 23 -14 41 -6
23 12 95 26 215 43 41 6 80 17 89 25 8 8 16 41 19 74 l4 59 -69 7 c-38 4 -82
4 -98 1 -49 -9 -220 -15 -193 -6 14 4 42 8 63 9 20 1 37 6 37 11 0 6 -3 11 -7
11 -24 4 -52 8 -86 11 -33 3 -35 5 -20 16 25 18 81 32 133 32 25 1 81 7 125
15 70 12 83 12 102 -1 13 -8 23 -20 23 -27 0 -18 56 -77 74 -77 8 0 16 -5 18
-11 2 -7 10 -10 16 -8 9 3 6 12 -10 29 -13 13 -28 34 -34 45 -6 11 -15 29 -21
40 -6 11 -17 35 -24 53 -11 32 -77 88 -88 76 -3 -3 2 -10 12 -15 9 -6 17 -16
17 -23 0 -17 -45 -9 -61 10 -15 18 -29 18 -29 -1 0 -20 -13 -19 -34 4 -9 10
-37 21 -62 25 -39 5 -57 1 -117 -28 -40 -19 -94 -43 -120 -55 l-48 -20 -9 25
c-6 14 -10 32 -10 41 0 9 -12 27 -27 41 -25 23 -27 23 -40 6 -7 -9 -16 -14
-20 -11 -3 4 -16 -1 -27 -11 -30 -27 -49 -32 -71 -16 -10 8 -27 14 -38 14 -10
0 -16 4 -12 9 6 10 -41 51 -59 51 -6 0 -22 9 -36 20 -14 11 -41 20 -62 20 -39
0 -60 16 -34 26 26 10 6 26 -24 20 -19 -3 -33 0 -41 10 -9 11 -14 12 -20 3 -8
-13 -39 -5 -39 11 0 5 10 10 22 10 21 0 17 14 -5 16 -7 0 -20 2 -29 2 -10 1
-18 9 -18 17 0 10 -14 17 -40 21 -22 4 -40 10 -40 14 0 5 9 6 20 3 20 -5 20
-5 3 25 -15 26 -21 29 -50 25 -35 -6 -43 3 -18 21 13 9 10 11 -14 11 -19 0
-27 -4 -24 -12 3 -7 0 -13 -6 -13 -6 0 -11 4 -11 10 0 6 -20 8 -47 5 -27 -3
-42 -3 -35 1 17 8 5 24 -19 24 -12 0 -19 7 -19 19 0 11 -8 26 -18 33 -10 7
-21 27 -25 44 -5 29 -4 31 15 26 17 -4 20 -2 15 11 -4 11 -1 17 8 17 8 0 15
-5 15 -12 0 -9 3 -9 12 0 8 8 8 15 -3 28 -12 15 -12 16 8 10 13 -4 30 -3 39 2
12 7 28 5 51 -4 18 -8 50 -14 71 -14 20 1 75 -1 122 -4 84 -5 125 5 190 45 8
5 34 18 58 29 47 23 55 36 17 26 -19 -5 -25 -2 -25 10 0 15 -12 16 -115 10
-63 -4 -115 -5 -115 -1 0 3 13 11 30 16 16 6 27 15 24 20 -3 5 4 9 15 9 11 0
23 5 26 10 3 6 16 11 28 11 20 1 20 2 2 6 -48 12 -51 77 -4 100 29 15 95 17
104 3 4 -6 -7 -10 -24 -10 -17 0 -31 -3 -31 -8 0 -11 30 -55 48 -69 21 -18
141 -17 148 0 5 13 44 21 44 9 0 -9 49 -31 75 -33 44 -4 109 2 98 9 -17 11
-35 62 -22 62 6 0 9 8 8 18 -1 9 -1 33 0 52 1 33 5 37 44 52 57 22 84 22 97
-1z m702 -103 c-9 -9 -15 -9 -24 0 -9 9 -7 12 12 12 19 0 21 -3 12 -12z
m-3217 -8 c-3 -5 -13 -10 -21 -10 -8 0 -12 5 -9 10 3 6 13 10 21 10 8 0 12 -4
9 -10z m25 -229 c0 -11 -39 -25 -47 -18 -3 3 -2 10 2 16 8 13 45 15 45 2z
m2084 -517 c3 -8 2 -12 -4 -9 -6 3 -10 10 -10 16 0 14 7 11 14 -7z m-1668
-894 c22 0 16 -26 -11 -44 -31 -21 -32 -21 -39 10 -5 17 -1 35 11 53 18 26 18
26 21 4 2 -13 10 -23 18 -23z m2204 -464 c0 -3 -4 -8 -10 -11 -5 -3 -10 -1
-10 4 0 6 5 11 10 11 6 0 10 -2 10 -4z"/>
<path d="M2990 2331 c8 -6 23 -11 33 -11 9 0 17 -6 17 -14 0 -7 11 -16 25 -18
14 -3 25 -2 25 1 -1 13 -51 42 -82 47 -25 4 -29 3 -18 -5z"/>
<path d="M2971 2296 c2 -2 14 -9 27 -15 18 -10 22 -9 22 4 0 10 -9 15 -27 15
-14 0 -24 -2 -22 -4z"/>
<path d="M2606 2221 c-4 -5 -1 -13 5 -16 5 -4 8 -13 5 -21 -4 -10 2 -14 19
-14 29 0 32 14 8 30 -17 11 -17 11 0 6 9 -3 17 -1 17 4 0 6 -4 10 -9 10 -5 0
-16 3 -24 6 -8 3 -18 1 -21 -5z"/>
<path d="M2265 2150 c-7 -11 9 -11 45 0 24 8 24 8 -7 9 -17 1 -35 -3 -38 -9z"/>
<path d="M2548 2139 c-16 -12 -25 -26 -21 -35 3 -8 -1 -22 -9 -32 -20 -23 -48
-86 -48 -107 0 -9 -6 -31 -14 -48 -17 -41 -35 -137 -25 -137 4 0 15 7 24 16
17 17 21 15 72 -31 45 -40 63 -55 68 -55 3 0 8 0 12 0 4 0 -1 -6 -11 -13 -17
-12 -17 -14 -1 -27 15 -12 19 -12 30 3 9 13 32 19 81 23 38 3 77 10 87 16 10
5 21 7 24 4 4 -3 21 3 39 15 27 16 37 18 54 9 26 -14 35 -7 35 28 0 25 3 27
36 24 30 -2 39 2 53 23 28 43 51 32 107 -52 28 -43 61 -85 72 -94 11 -9 17
-21 14 -26 -10 -16 31 -63 48 -56 8 3 15 16 15 28 0 13 5 25 12 27 7 3 8 9 2
19 -5 8 -9 25 -10 39 -1 25 -24 91 -35 100 -5 5 -21 40 -23 51 -2 13 -88 84
-103 84 -10 0 -20 12 -25 33 -7 25 -14 32 -33 32 -13 0 -28 7 -33 15 -4 9 -19
17 -33 18 -13 1 -30 7 -37 14 -7 7 -19 13 -27 13 -7 0 -25 7 -41 15 -20 10
-32 11 -41 3 -7 -5 -23 -8 -35 -5 -27 7 -48 -4 -52 -26 -3 -26 -51 -57 -111
-72 -57 -15 -134 -20 -122 -8 4 3 2 12 -3 18 -13 16 50 81 98 101 33 15 46 38
15 27 -10 -3 -15 -3 -11 2 9 9 -34 45 -54 45 -7 0 -25 -10 -40 -21z"/>
<path d="M2456 1711 c-4 -7 -5 -15 -2 -18 9 -9 19 4 14 18 -4 11 -6 11 -12 0z"/>
<path d="M2435 1250 c-3 -5 1 -10 9 -10 9 0 16 5 16 10 0 6 -4 10 -9 10 -6 0
-13 -4 -16 -10z"/>
<path d="M2566 1241 c-19 -7 -19 -8 2 -13 15 -4 22 -2 22 8 0 8 -1 14 -2 13
-2 0 -12 -4 -22 -8z"/>
<path d="M2475 1220 c3 -5 18 -10 33 -9 24 0 25 1 7 9 -28 12 -47 12 -40 0z"/>
<path d="M2850 385 c0 -3 9 -15 20 -27 22 -24 27 -13 6 15 -13 16 -26 23 -26
12z"/>
</g>
</svg>
