<svg id="Layer_5" enable-background="new 0 0 64 64" height="512" viewBox="0 0 64 64" width="512" xmlns="http://www.w3.org/2000/svg"><g><path d="m51 47h9c1.654 0 3-1.346 3-3v-4c0-1.654-1.346-3-3-3h-5v-2c0-1.103-.897-2-2-2h-20v-4h14v-14.177c.72-.253 1.328-.771 1.684-1.481.739-1.48.138-3.286-1.28-3.992l-13.035-7.703c-1.436-.847-3.302-.847-4.739 0l-12.972 7.669c-1.479.74-2.081 2.545-1.342 4.025.358.715.962 1.25 1.684 1.503v14.156h14v4h-20c-1.103 0-2 .897-2 2v2h-5c-1.654 0-3 1.346-3 3v4c0 1.654 1.346 3 3 3h1v14h4v2h10v-6h-10v2h-2v-6h2v2h10v-6h-10v2h-2v-4h9c1.654 0 3-1.346 3-3v-4c0-1.654-1.346-3-3-3h-5v-2h20v2h-5c-1.654 0-3 1.346-3 3v4c0 1.654 1.346 3 3 3h1v16h2v-8h2v2h10v-6h-10v2h-2v-6h9c1.654 0 3-1.346 3-3v-4c0-1.654-1.346-3-3-3h-5v-2h20v2h-5c-1.654 0-3 1.346-3 3v4c0 1.654 1.346 3 3 3h1v14h4v2h10v-6h-10v2h-2v-6h2v2h10v-6h-10v2h-2zm-33.948-35.316c.085-.254.263-.459.563-.612l13.031-7.702c.822-.484 1.886-.484 2.706 0l13.095 7.736c.238.119.416.324.501.579.084.254.065.525-.054.763-.169.34-.513.552-.895.552-.154 0-.309-.037-.383-.071l-13.616-8.092-13.553 8.058c-.479.24-1.104.031-1.342-.447-.119-.239-.137-.51-.053-.764zm1.948 3.124c.135-.048.27-.09.405-.159l12.595-7.486 12.658 7.521c.109.054.227.083.342.124v12.192h-6v-12h-14v12h-6zm8 12.192v-10h10v10h-4-2zm-16 32h6v2h-6zm0-8h6v2h-6zm6-11v4c0 .551-.448 1-1 1h-12c-.552 0-1-.449-1-1v-4c0-.551.448-1 1-1h12c.552 0 1 .449 1 1zm16 13h6v2h-6zm6-13v4c0 .551-.448 1-1 1h-12c-.552 0-1-.449-1-1v-4c0-.551.448-1 1-1h12c.552 0 1 .449 1 1zm8 4v-4c0-.551.448-1 1-1h12c.552 0 1 .449 1 1v4c0 .551-.448 1-1 1h-12c-.552 0-1-.449-1-1zm8 15h6v2h-6zm0-8h6v2h-6z"/><path d="m49 41h2v2h-2z"/><path d="m53 41h2v2h-2z"/><path d="m57 41h2v2h-2z"/><path d="m35 41h2v2h-2z"/><path d="m27 41h2v2h-2z"/><path d="m31 41h2v2h-2z"/><path d="m13 41h2v2h-2z"/><path d="m5 41h2v2h-2z"/><path d="m9 41h2v2h-2z"/></g></svg>