<svg id="Layer_5" enable-background="new 0 0 64 64" height="512" viewBox="0 0 64 64" width="512" xmlns="http://www.w3.org/2000/svg"><g><path d="m60 7h-56c-1.654 0-3 1.346-3 3v44c0 1.654 1.346 3 3 3h56c1.654 0 3-1.346 3-3v-44c0-1.654-1.346-3-3-3zm-56 2h56c.552 0 1 .449 1 1v9h-58v-9c0-.551.448-1 1-1zm-1 45v-33h30v34h-29c-.552 0-1-.448-1-1zm57 1h-25v-34h26v33c0 .552-.448 1-1 1z"/><path d="m11 11h-6v6h6zm-2 4h-2v-2h2z"/><path d="m19 11h-6v6h6zm-2 4h-2v-2h2z"/><path d="m27 11h-6v6h6zm-2 4h-2v-2h2z"/><path d="m37 53h6v-6h-6zm2-4h2v2h-2z"/><path d="m45 53h6v-6h-6zm2-4h2v2h-2z"/><path d="m53 53h6v-6h-6zm2-4h2v2h-2z"/><path d="m5 23v14h26v-14zm24 12h-22v-10h22z"/><path d="m5 53h26v-14h-26zm2-12h22v10h-22z"/><path d="m49 23h-12v14h12zm-2 12h-8v-10h8z"/><path d="m51 23h2v2h-2z"/><path d="m55 23h4v2h-4z"/><path d="m51 27h8v2h-8z"/><path d="m51 31h8v2h-8z"/><path d="m51 35h8v2h-8z"/><path d="m37 39h2v2h-2z"/><path d="m41 39h18v2h-18z"/><path d="m57 43h2v2h-2z"/><path d="m37 43h18v2h-18z"/></g></svg>