<svg id="Layer_5" enable-background="new 0 0 64 64" height="512" viewBox="0 0 64 64" width="512" xmlns="http://www.w3.org/2000/svg"><g><path d="m15 45h2v2h-2z"/><path d="m7 45h2v2h-2z"/><path d="m11 45h2v2h-2z"/><path d="m32 27h2v4h-2z"/><path d="m63 45.758c0-1.4-.545-2.717-1.535-3.707l-2.465-2.465v-23.586c0-2.757-2.243-5-5-5h-6.024c-1.878-2.812-4.555-5.086-7.797-6.498-1.653-2.184-4.218-3.502-7.033-3.502h-.291c-2.815 0-5.38 1.318-7.034 3.502-3.243 1.412-5.92 3.686-7.797 6.498h-12.024c-2.757 0-5 2.243-5 5v30c0 2.757 2.243 5 5 5h13.963c-.168 1.595-.997 3.041-2.296 4h-2.667c-1.654 0-3 1.346-3 3v2c0 1.654 1.346 3 3 3h30c1.654 0 3-1.346 3-3v-2c0-1.654-1.346-3-3-3h-2.666c-1.299-.959-2.128-2.405-2.296-4h17.962v-.024c2.776-.13 5-2.411 5-5.218zm-9-32.758c1.654 0 3 1.346 3 3v21.586l-2-2v-18.586c0-1.103-.897-2-2-2h-3.035c-.242-.685-.521-1.353-.841-2zm-21 26c3.579 0 6.909-1.062 9.715-2.871l2.871 2.871-1 1 1 1h-38.586v-24h8.446c-.293 1.293-.446 2.633-.446 4 0 9.925 8.075 18 18 18zm14-1.414-2.64-2.64c.947-.773 1.813-1.639 2.586-2.586l2.64 2.64zm4-4-2.871-2.871c1.809-2.806 2.871-6.136 2.871-9.715 0-1.367-.153-2.707-.446-4h2.446v16.586l-1-1zm-26.95-20.539c.094 2.294.344 4.584.736 6.842-.243.187-.476.388-.695.607-1.349 1.348-2.091 3.14-2.091 5.047v.239c-.64-1.467-1-3.082-1-4.782 0-2.977 1.101-5.774 3.05-7.953zm-.05 12.496c0-1.373.534-2.663 1.505-3.634.519-.519 1.145-.915 1.83-1.171l.887 7.096 4.778-3.584 4.778 3.584.887-7.096c.684.257 1.31.652 1.83 1.171.971.971 1.505 2.261 1.505 3.634v3.368c-2.201 2.501-5.415 4.089-9 4.089s-6.799-1.588-9-4.089zm12.485-5.457c.078.033.154.068.236.094l-.498 3.986-1.814-1.36zm-3.485-4.086c-2.206 0-4-1.794-4-4v-2.279c1.473-.49 2.845-1.291 4-2.329 1.155 1.038 2.527 1.838 4 2.329v2.279c0 2.206-1.794 4-4 4zm0 2c.576 0 1.132-.086 1.659-.239l.079.317c.058.233.154.448.262.655l-2 2.619-2.001-2.619c.108-.207.203-.422.261-.655l.079-.317c.529.153 1.085.239 1.661.239zm-3.484 2.087 2.077 2.719-1.814 1.36-.498-3.985c.08-.027.157-.061.235-.094zm12.393.408c-.218-.218-.452-.419-.695-.607.392-2.258.642-4.548.736-6.842 1.949 2.18 3.05 4.977 3.05 7.954 0 1.7-.36 3.315-1 4.782v-.239c0-1.907-.742-3.699-2.091-5.048zm-9.055-17.495h.291c2.613 0 4.963 1.452 6.131 3.789.474.947.724 2.008.724 3.065v1.047c0 2.662-.225 5.333-.645 7.962-.249-.093-.501-.181-.761-.246l-1.188-.298c-.359-.089-.638-.367-.728-.727l-.182-.728c1.514-1.088 2.504-2.861 2.504-4.864v-2.279c0-.862-.55-1.625-1.367-1.896-1.369-.457-2.632-1.237-3.652-2.258l-.981-.981-.98.98c-1.021 1.021-2.283 1.801-3.651 2.257-.819.273-1.369 1.035-1.369 1.898v2.279c0 2.003.99 3.775 2.503 4.866l-.182.728c-.089.359-.367.638-.728.728l-1.186.297c-.26.065-.512.153-.762.246-.42-2.631-.645-5.302-.645-7.964v-1.047c0-1.058.25-2.118.724-3.065 1.168-2.337 3.517-3.789 6.13-3.789zm-8.542 4.574c-.199.744-.312 1.511-.312 2.28v.463c-3.175 2.672-5 6.529-5 10.683 0 7.72 6.28 14 14 14s14-6.28 14-14c0-4.154-1.825-8.011-5-10.683v-.463c0-.769-.113-1.536-.312-2.281 4.512 2.913 7.312 7.921 7.312 13.427 0 8.822-7.178 16-16 16s-16-7.178-16-16c0-5.506 2.8-10.514 7.312-13.426zm-21.312 38.426v-30c0-1.654 1.346-3 3-3h10.876c-.321.647-.6 1.315-.841 2h-9.035c-1.103 0-2 .897-2 2v24c0 1.103.897 2 2 2h40.586l6 6h-47.586c-1.654 0-3-1.346-3-3zm43 12v2c0 .552-.448 1-1 1h-30c-.552 0-1-.448-1-1v-2c0-.552.448-1 1-1h30c.552 0 1 .448 1 1zm-6.471-3h-19.058c.858-1.155 1.378-2.536 1.492-4h16.075c.114 1.464.634 2.845 1.491 4zm18.229-6c-.866 0-1.681-.337-2.293-.949l-8.051-8.051 4.586-4.586 8.051 8.051c.612.612.949 1.427.949 2.293 0 1.788-1.454 3.242-3.242 3.242z"/><circle cx="58" cy="46" r="1"/><path d="m9 19h4v2h-4z"/><path d="m9 23h4v2h-4z"/><path d="m9 27h4v2h-4z"/><path d="m9 31h4v2h-4z"/><path d="m13 35h2v2h-2z"/><path d="m9 35h2v2h-2z"/><path d="m17 35h2v2h-2z"/></g></svg>