<svg id="Layer_5" enable-background="new 0 0 64 64" height="512" viewBox="0 0 64 64" width="512" xmlns="http://www.w3.org/2000/svg"><g><path d="m53 11h8c1.103 0 2-.897 2-2v-6c0-1.103-.897-2-2-2h-8c-1.103 0-2 .897-2 2v2h-4v-1c0-1.654-1.346-3-3-3h-24c-1.654 0-3 1.346-3 3v1h-4v-2c0-1.103-.897-2-2-2h-8c-1.103 0-2 .897-2 2v6c0 1.103.897 2 2 2h8c1.103 0 2-.897 2-2v-2h4v1c0 1.654 1.346 3 3 3v4c-1.654 0-3 1.346-3 3v1h-4v-2c0-1.103-.897-2-2-2h-8c-1.103 0-2 .897-2 2v6c0 1.103.897 2 2 2h8c1.103 0 2-.897 2-2v-2h4v1c0 1.654 1.346 3 3 3v4c-1.654 0-3 1.346-3 3v4c0 .352.072.686.184 1h-15.408l.243 1.199c2.964 14.603 15.294 24.801 29.981 24.801s27.017-10.198 29.98-24.801l.244-1.199h-15.408c.112-.314.184-.648.184-1v-4c0-1.654-1.346-3-3-3v-4c1.654 0 3-1.346 3-3v-1h4v2c0 1.103.897 2 2 2h8c1.103 0 2-.897 2-2v-6c0-1.103-.897-2-2-2h-8c-1.103 0-2 .897-2 2v2h-4v-1c0-1.654-1.346-3-3-3v-4c1.654 0 3-1.346 3-3v-1h4v2c0 1.103.897 2 2 2zm0-8h8l.002 6h-8.002zm-42 6h-8v-6h8zm0 14h-8v-6h8zm42-6h8l.002 6h-8.002zm-8.391 22c-.416 3.676-1.143 7.052-2.108 10h-21.003c-.965-2.948-1.692-6.324-2.108-10h.61 24zm-12.609 22c-3.834 0-7.371-3.834-9.786-10h19.572c-2.415 6.166-5.952 10-9.786 10zm-14.619-22c.399 3.654 1.09 7.018 2.019 10h-10.595c-2.073-2.936-3.651-6.297-4.557-10zm-7.029 12h9.727c1.492 4.035 3.448 7.229 5.706 9.304-6.101-1.345-11.473-4.633-15.433-9.304zm27.862 9.304c2.258-2.075 4.214-5.269 5.706-9.304h9.727c-3.959 4.671-9.331 7.959-15.433 9.304zm16.981-11.304h-10.594c.929-2.982 1.619-6.346 2.019-10h13.133c-.908 3.703-2.485 7.064-4.558 10zm-10.195-17v4c0 .552-.448 1-1 1h-24c-.552 0-1-.448-1-1v-4c0-.552.448-1 1-1h24c.552 0 1 .448 1 1zm-3-3h-20v-4h20zm3-11v4c0 .552-.448 1-1 1h-24c-.552 0-1-.448-1-1v-4c0-.552.448-1 1-1h24c.552 0 1 .448 1 1zm-3-3h-20v-4h20zm3-7c0 .552-.448 1-1 1h-24c-.552 0-1-.448-1-1v-4c0-.552.448-1 1-1h24c.552 0 1 .448 1 1z"/><path d="m25 5h2v2h-2z"/><path d="m29 5h2v2h-2z"/><path d="m21 5h2v2h-2z"/><path d="m41 19h2v2h-2z"/><path d="m33 19h2v2h-2z"/><path d="m37 19h2v2h-2z"/><path d="m29 33h2v2h-2z"/><path d="m21 33h2v2h-2z"/><path d="m25 33h2v2h-2z"/><path d="m55 5h4v2h-4z"/><path d="m55 19h4v2h-4z"/><path d="m5 5h4v2h-4z"/><path d="m5 19h4v2h-4z"/><path d="m22 41h2v2h-2z"/><path d="m30 41h2v2h-2z"/><path d="m26 41h2v2h-2z"/></g></svg>