<svg id="Layer_5" enable-background="new 0 0 64 64" height="512" viewBox="0 0 64 64" width="512" xmlns="http://www.w3.org/2000/svg"><g><path d="m45.707 28.293-1.414 1.414 2.293 2.293-2.293 2.293 1.414 1.414 3.707-3.707z"/><path d="m38.293 28.293-3.707 3.707 3.707 3.707 1.414-1.414-2.293-2.293 2.293-2.293z"/><path d="m37.475 31h10.05v2h-10.05z" transform="matrix(.1 -.995 .995 .1 6.426 71.102)"/><path d="m42 21c-6.065 0-11 4.935-11 11s4.935 11 11 11 11-4.935 11-11-4.935-11-11-11zm0 20c-4.962 0-9-4.037-9-9s4.038-9 9-9 9 4.037 9 9-4.038 9-9 9z"/><path d="m63 38v-34c0-1.654-1.346-3-3-3h-40c-1.654 0-3 1.346-3 3v19h-13c-1.654 0-3 1.346-3 3v34c0 1.654 1.346 3 3 3h40c1.654 0 3-1.346 3-3v-13.875c.886-.315 1.734-.708 2.535-1.176l6.93 6.93c.723.723 1.684 1.121 2.706 1.121 2.112 0 3.829-1.718 3.829-3.828 0-1.023-.398-1.984-1.122-2.707l-5.464-5.465h3.586c1.654 0 3-1.346 3-3zm-3 1h-4.744c1.109-2.092 1.744-4.472 1.744-7 0-8.271-6.729-15-15-15s-15 6.729-15 15c0 2.528.635 4.908 1.744 7h-8.744c-.551 0-1-.448-1-1v-27h42v27c0 .552-.449 1-1 1zm-18 6c-7.168 0-13-5.832-13-13s5.832-13 13-13 13 5.832 13 13-5.832 13-13 13zm-31 2h12v-2h2v8h-14zm10-2h-14v-8h10v1c0 1.654 1.346 3 3 3h1zm-1-42h40c.551 0 1 .448 1 1v5h-42v-5c0-.552.449-1 1-1zm-16 22h13v6h-14v-5c0-.552.449-1 1-1zm41 35c0 .552-.449 1-1 1h-40c-.551 0-1-.448-1-1v-27h14v2h-12v12h4v8h18v-12h-4v-2h7.028c2.74 3.635 7.079 6 11.972 6 1.027 0 2.03-.105 3-.302zm16-10.828c0 1.008-.82 1.828-1.829 1.828-.488 0-.948-.19-1.293-.535l-6.658-6.658c.964-.754 1.831-1.622 2.586-2.586l6.658 6.658c.341.341.536.811.536 1.293z"/><path d="m21 5h2v2h-2z"/><path d="m25 5h2v2h-2z"/><path d="m29 5h2v2h-2z"/><path d="m5 27h2v2h-2z"/><path d="m9 27h2v2h-2z"/><path d="m13 27h2v2h-2z"/><path d="m5 57h2v2h-2z"/><path d="m9 57h18v2h-18z"/><path d="m29 57h2v2h-2z"/><path d="m33 57h10v2h-10z"/><path d="m29 53h14v2h-14z"/><path d="m29 49h14v2h-14z"/><path d="m21 35h4v2h-4z"/><path d="m21 31h4v2h-4z"/><path d="m21 27h4v2h-4z"/><path d="m21 25h6v-12h-6zm2-10h2v8h-2z"/><path d="m29 13h2v2h-2z"/><path d="m33 13h26v2h-26z"/><path d="m53 17h6v2h-6z"/></g></svg>