<svg id="Layer_5" enable-background="new 0 0 64 64" height="512" viewBox="0 0 64 64" width="512" xmlns="http://www.w3.org/2000/svg"><g><path d="m55.707 15.707 3.707-3.707-3.707-3.707-1.414 1.414 2.293 2.293-2.293 2.293z"/><path d="m49.707 14.293-2.293-2.293 2.293-2.293-1.414-1.414-3.707 3.707 3.707 3.707z"/><path d="m47.475 11h10.05v2h-10.05z" transform="matrix(.1 -.995 .995 .1 35.331 63.044)"/><path d="m60 37h-11v-14.426c.955.271 1.959.426 3 .426 6.065 0 11-4.935 11-11s-4.935-11-11-11-11 4.935-11 11c0 .338.021.67.051 1h-37.051c-1.654 0-3 1.346-3 3v44c0 1.654 1.346 3 3 3h42c1.654 0 3-1.346 3-3v-1h11c1.654 0 3-1.346 3-3v-16c0-1.654-1.346-3-3-3zm-8-34c4.962 0 9 4.038 9 9s-4.038 9-9 9-9-4.038-9-9 4.038-9 9-9zm-21 12h10.426c.198.698.463 1.366.788 2h-5.214v2h6.521c.952 1.151 2.138 2.098 3.479 2.786v3.214h-16zm-28 1c0-.551.449-1 1-1h25v10h-26zm44 44c0 .551-.449 1-1 1h-42c-.551 0-1-.449-1-1v-33h44v10h-2v-8h-18v14h6v13c0 1.654 1.346 3 3 3h11zm-4-29v6h-7c-1.654 0-3 1.346-3 3v1h-4v-10zm-7 26 3.6-4.8c.563-.751 1.461-1.2 2.4-1.2s1.836.449 2.4 1.2l2.174 2.899-1.14 1.901zm24 0h-12.234l4.062-6.771c.456-.758 1.288-1.229 2.172-1.229s1.716.471 2.171 1.229l4.037 6.728c-.069.016-.134.043-.208.043zm1-2.61-3.114-5.189c-.814-1.358-2.303-2.201-3.886-2.201s-3.072.843-3.886 2.2l-2.428 4.047-1.686-2.247c-.939-1.252-2.435-2-4-2s-3.061.748-4 2l-3 4v-15c0-.551.449-1 1-1h24c.551 0 1 .449 1 1z"/><path d="m40 41c-1.654 0-3 1.346-3 3s1.346 3 3 3 3-1.346 3-3-1.346-3-3-3zm0 4c-.551 0-1-.449-1-1s.449-1 1-1 1 .449 1 1-.449 1-1 1z"/><path d="m5 23h6v-6h-6zm2-4h2v2h-2z"/><path d="m13 23h6v-6h-6zm2-4h2v2h-2z"/><path d="m21 23h6v-6h-6zm2-4h2v2h-2z"/><path d="m33 17h2v2h-2z"/><path d="m33 21h2v2h-2z"/><path d="m37 21h8v2h-8z"/><path d="m23 29h-18v14h18zm-2 12h-14v-10h14z"/><path d="m5 45h2v2h-2z"/><path d="m9 45h22v2h-22z"/><path d="m5 49h26v2h-26z"/><path d="m9 53h2v2h-2z"/><path d="m5 53h2v2h-2z"/><path d="m13 53h18v2h-18z"/><path d="m29 57h2v2h-2z"/><path d="m5 57h22v2h-22z"/></g></svg>