<svg id="Layer_5" enable-background="new 0 0 64 64" height="512" viewBox="0 0 64 64" width="512" xmlns="http://www.w3.org/2000/svg"><g><path d="m60 1h-56c-1.654 0-3 1.346-3 3v44c0 1.654 1.346 3 3 3h27v.55c0 1.074.252 2.151.73 3.113l2.27 4.571v3.721l18 .047v-3.669l1.6-2.133c.903-1.204 1.4-2.695 1.4-4.2v-2h5c1.654 0 3-1.346 3-3v-44c0-1.654-1.346-3-3-3zm-56 2h56c.551 0 1 .449 1 1v9h-58v-9c0-.551.449-1 1-1zm36 22c-1.654 0-3 1.346-3 3v1h-12v-10h32v10h-14v-1c0-1.654-1.346-3-3-3zm-3 16.257c-1.341-1.411-3.244-2.299-5.381-2.299-1.443 0-2.618 1.174-2.619 2.618 0 .404.096.809.276 1.172l1.127 2.252h-5.403v-10h12zm16 11.743c0 1.075-.355 2.141-1 3l-2 2.667v2.331l-14-.038v-2.195l-2.479-4.992c-.341-.687-.521-1.455-.521-2.223v-4.108c0-1.126-.266-2.253-.769-3.259l-1.165-2.33c-.043-.085-.066-.182-.066-.277 0-.341.278-.618.714-.618 2.915 0 5.286 2.372 5.286 5.287v1.713 2h2v-2-1.713-18.245c0-.551.449-1 1-1s1 .449 1 1v12 4h2v-4c0-.551.449-1 1-1s1 .449 1 1v4h2v-4c0-.551.449-1 1-1s1 .449 1 1v2 2h2v-2c0-.551.449-1 1-1s1 .449 1 1zm-1-14c-.395 0-.77.081-1.116.22-.345-1.275-1.501-2.22-2.884-2.22-.771 0-1.468.301-2 .78-.532-.48-1.229-.78-2-.78-.352 0-.686.072-1 .184v-2.184h14v10h-2v-3c0-1.654-1.346-3-3-3zm8 10h-5v-2h4v-14h-16v-2h16v-14h-36v14h14v2h-14v14h7.974c.013.147.026.295.026.442v1.558h-27c-.551 0-1-.449-1-1v-33h58v33c0 .551-.449 1-1 1z"/><path d="m11 5h-6v6h6zm-2 4h-2v-2h2z"/><path d="m19 5h-6v6h6zm-2 4h-2v-2h2z"/><path d="m27 5h-6v6h6zm-2 4h-2v-2h2z"/><path d="m27 21h2v2h-2z"/><path d="m31 21h24v2h-24z"/><path d="m45 25h10v2h-10z"/><path d="m27 25h8v2h-8z"/><path d="m7 31h14v-14h-14zm2-12h10v10h-10z"/><path d="m13 24.586-1.293-1.293-1.414 1.414 2.707 2.707 5.707-5.707-1.414-1.414z"/><path d="m7 47h14v-14h-14zm2-12h10v10h-10z"/><path d="m13 40.586-1.293-1.293-1.414 1.414 2.707 2.707 5.707-5.707-1.414-1.414z"/></g></svg>