<?xml version="1.0" encoding="UTF-8" standalone="no"?>
<!-- Created with Inkscape (http://www.inkscape.org/) -->

<svg
   version="1.1"
   id="svg2"
   width="371.14401"
   height="94.330666"
   viewBox="0 0 371.14401 94.330666"
   xmlns="http://www.w3.org/2000/svg"
   xmlns:svg="http://www.w3.org/2000/svg">
  <defs
     id="defs6">
    <clipPath
       clipPathUnits="userSpaceOnUse"
       id="clipPath52">
      <path
         d="M 0,70.749 H 278.358 V 0.06 L 0,0.06 Z"
         id="path50" />
    </clipPath>
    <clipPath
       clipPathUnits="userSpaceOnUse"
       id="clipPath92">
      <path
         d="M 0,70.749 H 278.358 V 0.06 L 0,0.06 Z"
         id="path90" />
    </clipPath>
    <clipPath
       clipPathUnits="userSpaceOnUse"
       id="clipPath128">
      <path
         d="M 0,70.749 H 278.358 V 0.06 L 0,0.06 Z"
         id="path126" />
    </clipPath>
  </defs>
  <g
     id="g8"
     transform="matrix(1.3333333,0,0,-1.3333333,0,94.330667)">
    <g
       id="g10"
       transform="translate(107.212,7.7636)">
      <path
         d="m 0,0 c -0.021,-0.6118 -0.063,-1.2426 -0.143,-1.9126 l 2.49,4.5136 -0.274,1.472 2.5,0.383 0.909,-6.2538 1.15,3.9204 C 6.723,2.505 6.77,2.791 6.781,3.079 6.79,3.366 6.763,3.671 6.663,4.092 L 9.281,4.589 C 9.376,4.054 9.437,3.595 9.421,3.117 9.398,2.486 9.24,1.7979 8.802,0.7652 L 6.694,-4.8955 H 3.577 L 2.921,-0.6694 0.48,-4.8955 h -3.022 c 0.119,3.9395 -0.024,6.4063 -0.297,8.9875 l 2.595,0.402 C -0.046,3.06 0.057,1.6255 0,0"
         style="fill:#ffffff;fill-opacity:1;fill-rule:nonzero;stroke:none"
         id="path12" />
    </g>
    <g
       id="g14"
       transform="translate(123.443,9.9243)">
      <path
         d="m 0,0 c -1.208,-0.6499 -1.656,-0.8989 -2.75,-1.5679 l -1.167,-5.4883 h -2.695 l 1.903,9.0832 2.385,0.402 -0.102,-1.262 c 0.918,0.535 1.658,0.918 2.473,1.262 L 0,0"
         style="fill:#ffffff;fill-opacity:1;fill-rule:nonzero;stroke:none"
         id="path16" />
    </g>
    <g
       id="g18"
       transform="translate(125.914,16.083)">
      <path
         d="M 0,0 2.786,0.382 2.169,-2.486 -0.598,-2.869 Z m -0.871,-4.112 2.787,0.383 -2.014,-9.485 h -2.695 l 1.922,9.102"
         style="fill:#ffffff;fill-opacity:1;fill-rule:nonzero;stroke:none"
         id="path20" />
    </g>
    <g
       id="g22"
       transform="translate(132.794,10.02)">
      <path
         d="m 0,0 -0.984,-4.6465 c -0.022,-0.0957 -0.045,-0.1914 -0.047,-0.249 -0.004,-0.1338 0.07,-0.1914 0.262,-0.1914 0.459,0 0.98,0.1914 1.466,0.3828 l 0.469,-1.874 c -0.779,-0.4205 -1.9,-0.7652 -2.99,-0.7652 -1.357,0 -2.061,0.6504 -2.022,1.7593 0.004,0.1343 0.029,0.2681 0.052,0.4019 L -2.695,0 h -1.376 l 0.457,2.161 h 1.377 l 0.46,2.237 2.785,0.383 -0.55,-2.62 H 2.676 L 2.065,0 H 0"
         style="fill:#ffffff;fill-opacity:1;fill-rule:nonzero;stroke:none"
         id="path24" />
    </g>
    <g
       id="g26"
       transform="translate(140.911,9.7524)">
      <path
         d="m 0,0 c 0.011,0.325 -0.268,0.536 -0.765,0.536 -0.976,0 -1.282,-0.555 -1.442,-1.3202 l -0.137,-0.6504 c 0.463,0.1153 0.674,0.1534 1.234,0.3257 C -0.375,-0.8984 -0.02,-0.5547 0,0 Z m -4.907,-0.8984 c 0.456,2.1414 1.461,3.5184 4.406,3.5184 1.758,0 3.07,-0.765 3.015,-2.333 -0.063,-1.8173 -1.029,-2.6586 -3.347,-3.3466 -1.141,-0.3442 -1.16,-0.3442 -1.97,-0.5547 l -0.138,-0.6499 c -0.069,-0.3447 -0.042,-0.6503 0.455,-0.6503 0.976,0 2.408,0.478 3.689,1.0322 l 0.449,-1.9116 c -1.153,-0.7076 -2.951,-1.2818 -4.595,-1.2818 -1.931,0 -2.724,0.8413 -2.669,2.4287 0.012,0.3443 0.065,0.7266 0.155,1.1285 l 0.55,2.6201"
         style="fill:#ffffff;fill-opacity:1;fill-rule:nonzero;stroke:none"
         id="path28" />
    </g>
    <g
       id="g30"
       transform="translate(150.381,15.987)">
      <path
         d="M 0,0 2.786,0.382 -0.056,-13.119 H -2.752 L 0,0"
         style="fill:#ffffff;fill-opacity:1;fill-rule:nonzero;stroke:none"
         id="path32" />
    </g>
    <g
       id="g34"
       transform="translate(158.422,9.7524)">
      <path
         d="m 0,0 c 0.012,0.325 -0.267,0.536 -0.764,0.536 -0.976,0 -1.283,-0.555 -1.443,-1.3202 l -0.136,-0.6504 c 0.463,0.1153 0.673,0.1534 1.234,0.3257 C -0.375,-0.8984 -0.019,-0.5547 0,0 Z M -4.906,-0.8984 C -4.45,1.243 -3.445,2.62 -0.501,2.62 1.258,2.62 2.57,1.855 2.515,0.287 2.452,-1.5303 1.486,-2.3716 -0.833,-3.0596 -1.973,-3.4038 -1.992,-3.4038 -2.802,-3.6143 L -2.94,-4.2642 c -0.069,-0.3447 -0.042,-0.6503 0.455,-0.6503 0.976,0 2.407,0.478 3.688,1.0322 l 0.45,-1.9116 c -1.154,-0.7076 -2.951,-1.2818 -4.595,-1.2818 -1.932,0 -2.725,0.8413 -2.669,2.4287 0.012,0.3443 0.064,0.7266 0.154,1.1285 l 0.551,2.6201"
         style="fill:#ffffff;fill-opacity:1;fill-rule:nonzero;stroke:none"
         id="path36" />
    </g>
    <g
       id="g38"
       transform="translate(161.16,3.289)">
      <path
         d="m 0,0 0.586,1.9888 c 0.698,-0.249 1.493,-0.478 2.506,-0.478 0.899,0 0.965,0.2675 1.057,0.7075 C 4.24,2.6387 3.98,2.8682 2.948,3.4229 1.035,4.4556 0.982,5.1441 1.28,6.5396 1.713,8.548 2.325,9.083 4.906,9.083 c 0.879,0 2,-0.191 2.757,-0.439 L 7.151,6.6162 C 6.469,6.808 5.463,6.96 4.812,6.96 4.009,6.96 3.89,6.865 3.777,6.3682 3.686,5.9278 3.778,5.8321 4.66,5.3545 6.761,4.2066 7.073,3.8052 6.754,2.333 6.298,0.229 5.657,-0.6123 2.865,-0.6123 2.005,-0.6123 0.809,-0.3633 0,0"
         style="fill:#ffffff;fill-opacity:1;fill-rule:nonzero;stroke:none"
         id="path40" />
    </g>
    <g
       id="g42"
       transform="translate(168.884,3.289)">
      <path
         d="m 0,0 0.586,1.9888 c 0.698,-0.249 1.493,-0.478 2.507,-0.478 0.898,0 0.965,0.2675 1.057,0.7075 C 4.241,2.6387 3.981,2.8682 2.949,3.4229 1.035,4.4556 0.983,5.1441 1.281,6.5396 1.713,8.548 2.325,9.083 4.907,9.083 c 0.878,0 2,-0.191 2.756,-0.439 L 7.152,6.6162 C 6.47,6.808 5.463,6.96 4.813,6.96 4.01,6.96 3.891,6.865 3.778,6.3682 3.687,5.9278 3.779,5.8321 4.66,5.3545 6.762,4.2066 7.074,3.8052 6.754,2.333 6.298,0.229 5.658,-0.6123 2.866,-0.6123 2.005,-0.6123 0.81,-0.3633 0,0"
         style="fill:#ffffff;fill-opacity:1;fill-rule:nonzero;stroke:none"
         id="path44" />
    </g>
    <g
       id="g46">
      <g
         id="g48"
         clip-path="url(#clipPath52)">
        <g
           id="g54"
           transform="translate(176.271,0.7841)">
          <path
             d="M 0,0 1.546,2.084 H 0.532 L 1.197,5.2583 H 3.893 L 3.163,1.8545 0.947,-0.7841 0,0"
             style="fill:#ffffff;fill-opacity:1;fill-rule:nonzero;stroke:none"
             id="path56" />
        </g>
      </g>
    </g>
    <g
       id="g58"
       transform="translate(188.544,5.6601)">
      <path
         d="m 0,0 c -0.113,-0.4975 0.013,-0.727 0.491,-0.727 0.956,0 1.661,0.4975 2.193,0.9565 L 3.555,4.379 C 3.251,4.436 2.889,4.456 2.507,4.456 1.111,4.456 0.798,3.71 0.595,2.8111 Z m 2.464,-2.792 -0.049,0.8033 c -0.688,-0.5547 -1.659,-0.9947 -2.998,-0.9947 -2.026,0 -2.48,1.2241 -2.044,3.3086 L -2.1,2.8301 c 0.46,2.2179 1.092,3.8819 5.011,3.8819 0.287,0 0.878,-0.038 1.125,-0.096 l 0.779,3.711 2.766,0.381 -2.841,-13.5 H 2.464"
         style="fill:#ffffff;fill-opacity:1;fill-rule:nonzero;stroke:none"
         id="path60" />
    </g>
    <g
       id="g62"
       transform="translate(202.121,9.0639)">
      <path
         d="m 0,0 c 0.024,0.6885 -0.383,1.052 -1.263,1.052 -1.014,0 -1.625,-0.5163 -1.809,-1.4343 l -0.482,-2.314 c -0.025,-0.1337 -0.048,-0.2675 -0.052,-0.3823 -0.023,-0.6694 0.384,-1.0522 1.264,-1.0522 1.032,0 1.623,0.5166 1.808,1.4345 l 0.483,2.314 C -0.028,-0.2485 -0.004,-0.1147 0,0 Z m -6.329,-3.27 c 0.008,0.2105 0.036,0.44 0.082,0.6504 l 0.458,2.1606 c 0.502,2.391 1.718,3.767 4.968,3.767 2.505,0 3.582,-1.434 3.525,-3.0975 C 2.696,0 2.669,-0.2295 2.623,-0.459 L 2.166,-2.6196 c -0.481,-2.2378 -1.605,-3.7676 -4.989,-3.7676 -2.371,0 -3.564,1.4155 -3.506,3.1172"
         style="fill:#ffffff;fill-opacity:1;fill-rule:nonzero;stroke:none"
         id="path64" />
    </g>
    <g
       id="g66"
       transform="translate(221.283,9.1977)">
      <path
         d="m 0,0 c 0.023,0.1148 0.046,0.2105 0.048,0.2871 0.006,0.1914 -0.086,0.2676 -0.354,0.2676 -0.497,0 -1.681,-0.4971 -2.459,-0.8984 L -4.026,-6.3296 H -6.702 L -5.372,0 c 0.022,0.1148 0.046,0.2105 0.047,0.2871 0.007,0.1914 -0.085,0.2676 -0.353,0.2676 -0.497,0 -1.7,-0.4971 -2.44,-0.8794 l -1.261,-6.0049 h -2.696 l 1.905,9.0836 2.384,0.401 -0.055,-1.032 c 1.477,0.689 2.637,1.051 3.708,1.051 0.917,0 1.381,-0.401 1.567,-1.089 1.444,0.822 2.735,1.089 3.805,1.089 1.243,0 1.677,-0.707 1.636,-1.892 C 2.863,0.956 2.831,0.5928 2.742,0.2105 L 1.366,-6.3296 H -1.33 L 0,0"
         style="fill:#ffffff;fill-opacity:1;fill-rule:nonzero;stroke:none"
         id="path68" />
    </g>
    <g
       id="g70"
       transform="translate(231.39,9.0639)">
      <path
         d="m 0,0 c 0.025,0.6885 -0.383,1.052 -1.263,1.052 -1.013,0 -1.625,-0.5163 -1.808,-1.4343 l -0.483,-2.314 c -0.024,-0.1337 -0.047,-0.2675 -0.051,-0.3823 -0.024,-0.6694 0.383,-1.0522 1.263,-1.0522 1.033,0 1.623,0.5166 1.809,1.4345 l 0.482,2.314 C -0.027,-0.2485 -0.004,-0.1147 0,0 Z m -6.328,-3.27 c 0.008,0.2105 0.035,0.44 0.081,0.6504 l 0.458,2.1606 c 0.503,2.391 1.719,3.767 4.969,3.767 2.505,0 3.582,-1.434 3.524,-3.0975 C 2.696,0 2.669,-0.2295 2.623,-0.459 L 2.166,-2.6196 c -0.48,-2.2378 -1.604,-3.7676 -4.988,-3.7676 -2.371,0 -3.565,1.4155 -3.506,3.1172"
         style="fill:#ffffff;fill-opacity:1;fill-rule:nonzero;stroke:none"
         id="path72" />
    </g>
    <g
       id="g74"
       transform="translate(241.248,9.9243)">
      <path
         d="m 0,0 c -1.208,-0.6499 -1.657,-0.8989 -2.75,-1.5679 l -1.167,-5.4883 h -2.696 l 1.905,9.0832 2.383,0.402 -0.101,-1.262 c 0.918,0.535 1.658,0.918 2.472,1.262 L 0,0"
         style="fill:#ffffff;fill-opacity:1;fill-rule:nonzero;stroke:none"
         id="path76" />
    </g>
    <g
       id="g78"
       transform="translate(246.767,9.7524)">
      <path
         d="m 0,0 c 0.012,0.325 -0.267,0.536 -0.765,0.536 -0.975,0 -1.282,-0.555 -1.442,-1.3202 l -0.137,-0.6504 c 0.463,0.1153 0.674,0.1534 1.235,0.3257 C -0.375,-0.8984 -0.019,-0.5547 0,0 Z M -4.906,-0.8984 C -4.45,1.243 -3.445,2.62 -0.501,2.62 1.258,2.62 2.569,1.855 2.515,0.287 2.451,-1.5303 1.485,-2.3716 -0.834,-3.0596 -1.974,-3.4038 -1.992,-3.4038 -2.803,-3.6143 L -2.94,-4.2642 c -0.07,-0.3447 -0.042,-0.6503 0.455,-0.6503 0.975,0 2.407,0.478 3.688,1.0322 l 0.449,-1.9116 c -1.153,-0.7076 -2.951,-1.2818 -4.594,-1.2818 -1.932,0 -2.725,0.8413 -2.669,2.4287 0.011,0.3443 0.064,0.7266 0.154,1.1285 l 0.551,2.6201"
         style="fill:#ffffff;fill-opacity:1;fill-rule:nonzero;stroke:none"
         id="path80" />
    </g>
    <g
       id="g82"
       transform="translate(250.384,6.0424)">
      <path
         d="M 0,0 H 2.696 L 2.031,-3.1743 H -0.665 L 0,0"
         style="fill:#ffffff;fill-opacity:1;fill-rule:nonzero;stroke:none"
         id="path84" />
    </g>
    <g
       id="g86">
      <g
         id="g88"
         clip-path="url(#clipPath92)">
        <g
           id="g94"
           transform="translate(3.27,57.305)">
          <path
             d="m 0,0 c -4.5571,-6.547 -3.9936,-15.064 -0.5073,-22.021 0.0781,-0.17 0.1679,-0.331 0.2534,-0.495 0.0488,-0.106 0.1045,-0.213 0.1645,-0.317 0.0259,-0.058 0.0669,-0.121 0.1006,-0.178 0.0562,-0.114 0.1158,-0.218 0.1753,-0.326 0.1123,-0.189 0.2241,-0.381 0.336,-0.568 0.0635,-0.104 0.1235,-0.209 0.1943,-0.313 0.1191,-0.202 0.2573,-0.401 0.3809,-0.603 0.0556,-0.086 0.1079,-0.17 0.1679,-0.254 0.1788,-0.272 0.3584,-0.541 0.5562,-0.806 0,-0.008 0.0073,-0.015 0.0146,-0.018 0.0298,-0.045 0.0635,-0.088 0.0933,-0.129 0.168,-0.23 0.3359,-0.454 0.5117,-0.676 0.0596,-0.082 0.1265,-0.164 0.1865,-0.244 0.1602,-0.194 0.3174,-0.388 0.4737,-0.581 0.06,-0.069 0.1196,-0.142 0.1831,-0.213 0.209,-0.252 0.4292,-0.502 0.6533,-0.748 0,-0.004 0.0073,-0.009 0.0112,-0.015 0.0073,-0.009 0.0147,-0.018 0.0298,-0.028 0.2163,-0.237 0.4365,-0.47 0.6607,-0.701 0.0707,-0.072 0.1416,-0.141 0.2202,-0.215 0.1714,-0.174 0.3432,-0.349 0.5263,-0.521 0.0748,-0.071 0.149,-0.14 0.2202,-0.209 0.2388,-0.224 0.4776,-0.448 0.7276,-0.662 0.0039,-0.004 0.0078,-0.006 0.0112,-0.009 0.041,-0.036 0.086,-0.072 0.1236,-0.107 0.2197,-0.189 0.4402,-0.375 0.6642,-0.56 0.09,-0.075 0.179,-0.146 0.269,-0.218 0.186,-0.148 0.373,-0.289 0.559,-0.432 0.098,-0.072 0.195,-0.147 0.295,-0.224 0.202,-0.151 0.411,-0.298 0.616,-0.443 0.075,-0.055 0.149,-0.109 0.228,-0.159 0.019,-0.017 0.041,-0.032 0.06,-0.047 0.205,-0.134 0.399,-0.265 0.601,-0.397 0.089,-0.058 0.175,-0.114 0.261,-0.172 0.313,-0.2 0.627,-0.392 0.937,-0.578 0.089,-0.047 0.179,-0.098 0.265,-0.148 0.231,-0.134 0.466,-0.267 0.705,-0.394 0.131,-0.073 0.261,-0.136 0.396,-0.203 0.16,-0.088 0.328,-0.177 0.5,-0.265 0.041,-0.017 0.082,-0.032 0.119,-0.053 0.071,-0.031 0.138,-0.067 0.205,-0.1 0.262,-0.129 0.531,-0.251 0.807,-0.374 0.052,-0.024 0.108,-0.046 0.164,-0.074 0.31,-0.135 0.62,-0.264 0.937,-0.389 0.075,-0.027 0.149,-0.061 0.228,-0.087 0.287,-0.112 0.586,-0.222 0.88,-0.328 0.038,-0.016 0.071,-0.027 0.109,-0.04 0.328,-0.112 0.653,-0.218 0.985,-0.321 0.078,-0.022 0.157,-0.05 0.239,-0.071 0.34,-0.102 0.668,-0.222 1.015,-0.287 22.033,-4.016 28.434,13.241 28.434,13.241 -5.378,-7 -14.922,-8.85 -23.962,-6.793 -0.336,0.076 -0.668,0.183 -1.008,0.284 -0.079,0.022 -0.168,0.048 -0.247,0.076 -0.328,0.099 -0.652,0.205 -0.97,0.314 -0.045,0.015 -0.093,0.031 -0.138,0.05 -0.287,0.099 -0.571,0.207 -0.854,0.317 -0.079,0.034 -0.161,0.062 -0.24,0.092 -0.313,0.123 -0.623,0.255 -0.925,0.388 -0.067,0.024 -0.124,0.052 -0.187,0.078 -0.265,0.122 -0.519,0.241 -0.776,0.364 -0.079,0.034 -0.149,0.071 -0.228,0.11 -0.202,0.096 -0.403,0.202 -0.601,0.306 -0.138,0.071 -0.272,0.137 -0.403,0.209 -0.243,0.131 -0.485,0.269 -0.728,0.403 -0.075,0.051 -0.157,0.094 -0.243,0.14 -0.313,0.187 -0.63,0.379 -0.94,0.577 -0.089,0.056 -0.172,0.112 -0.254,0.17 -0.227,0.144 -0.452,0.295 -0.672,0.444 -0.071,0.051 -0.141,0.103 -0.216,0.155 -0.213,0.15 -0.422,0.3 -0.634,0.456 -0.09,0.07 -0.183,0.141 -0.281,0.212 -0.19,0.148 -0.38,0.293 -0.57,0.446 -0.083,0.069 -0.168,0.136 -0.251,0.203 -0.246,0.198 -0.477,0.396 -0.713,0.602 -0.022,0.024 -0.055,0.044 -0.082,0.065 -0.25,0.224 -0.5,0.453 -0.746,0.681 -0.075,0.071 -0.138,0.136 -0.213,0.204 -0.179,0.175 -0.358,0.346 -0.533,0.524 -0.075,0.074 -0.143,0.144 -0.213,0.214 -0.224,0.227 -0.445,0.46 -0.661,0.698 -0.011,0.01 -0.022,0.021 -0.034,0.034 -0.227,0.25 -0.447,0.504 -0.668,0.762 -0.06,0.069 -0.115,0.139 -0.175,0.207 -0.161,0.197 -0.321,0.397 -0.485,0.595 -0.053,0.076 -0.113,0.149 -0.172,0.224 -0.191,0.245 -0.3732,0.489 -0.5563,0.741 -5.0166,6.844 -6.8267,16.288 -2.814,24.039"
             style="fill:#88d6f6;fill-opacity:1;fill-rule:nonzero;stroke:none"
             id="path96" />
        </g>
      </g>
    </g>
    <g
       id="g98"
       transform="translate(17.417,62.824)">
      <path
         d="m 0,0 c -3.304,-4.74 -3.121,-11.087 -0.549,-16.104 0.425,-0.839 0.911,-1.655 1.456,-2.43 0.492,-0.709 1.037,-1.548 1.698,-2.118 0.231,-0.261 0.481,-0.515 0.739,-0.77 0.064,-0.064 0.127,-0.126 0.194,-0.193 0.247,-0.237 0.497,-0.47 0.754,-0.697 0.008,-0.01 0.022,-0.019 0.03,-0.029 0.004,-0.002 0.008,-0.005 0.008,-0.005 0.287,-0.254 0.578,-0.495 0.88,-0.73 0.071,-0.05 0.135,-0.107 0.205,-0.157 0.299,-0.233 0.606,-0.457 0.915,-0.677 0.011,-0.004 0.019,-0.011 0.034,-0.017 0.134,-0.097 0.276,-0.187 0.422,-0.28 0.063,-0.041 0.13,-0.089 0.193,-0.129 0.228,-0.147 0.452,-0.285 0.684,-0.422 0.033,-0.016 0.066,-0.035 0.1,-0.052 0.194,-0.117 0.4,-0.233 0.605,-0.337 0.071,-0.043 0.142,-0.077 0.213,-0.116 0.142,-0.071 0.283,-0.146 0.421,-0.219 0.019,-0.009 0.045,-0.02 0.068,-0.03 0.291,-0.143 0.586,-0.276 0.877,-0.408 0.071,-0.028 0.131,-0.053 0.197,-0.08 0.24,-0.103 0.482,-0.204 0.721,-0.295 0.108,-0.036 0.209,-0.079 0.31,-0.114 0.22,-0.078 0.444,-0.155 0.664,-0.228 0.108,-0.035 0.205,-0.065 0.303,-0.097 0.313,-0.099 0.63,-0.226 0.962,-0.278 17.006,-2.82 20.94,10.28 20.94,10.28 -3.542,-5.103 -10.399,-7.533 -17.714,-5.633 -0.329,0.084 -0.65,0.178 -0.964,0.28 -0.1,0.026 -0.19,0.058 -0.287,0.091 -0.227,0.073 -0.456,0.15 -0.676,0.232 -0.1,0.037 -0.205,0.075 -0.305,0.114 -0.243,0.095 -0.486,0.188 -0.721,0.293 -0.071,0.028 -0.138,0.052 -0.194,0.082 -0.302,0.13 -0.601,0.271 -0.892,0.41 -0.149,0.077 -0.295,0.152 -0.444,0.23 -0.09,0.045 -0.176,0.088 -0.254,0.129 -0.198,0.102 -0.381,0.211 -0.568,0.32 -0.044,0.025 -0.089,0.047 -0.134,0.074 -0.227,0.137 -0.463,0.276 -0.679,0.42 -0.075,0.042 -0.138,0.091 -0.209,0.135 -0.15,0.096 -0.295,0.191 -0.448,0.293 -0.31,0.215 -0.612,0.443 -0.914,0.671 -0.072,0.057 -0.139,0.11 -0.206,0.166 -3.21,2.527 -5.748,5.983 -6.95,9.896 C 0.216,-4.464 0.496,0.099 2.684,3.8"
         style="fill:#88d6f6;fill-opacity:1;fill-rule:nonzero;stroke:none"
         id="path100" />
    </g>
    <g
       id="g102"
       transform="translate(29.308,66.946)">
      <path
         d="m 0,0 c -1.948,-2.859 -2.135,-6.411 -0.792,-9.564 1.426,-3.353 4.341,-5.982 7.738,-7.227 0.138,-0.054 0.276,-0.099 0.418,-0.147 0.064,-0.019 0.123,-0.039 0.191,-0.06 0.197,-0.061 0.395,-0.136 0.6,-0.175 9.395,-1.814 11.941,4.82 12.624,5.797 -2.236,-3.214 -5.987,-3.985 -10.589,-2.867 -0.362,0.088 -0.758,0.218 -1.109,0.345 -0.448,0.159 -0.892,0.343 -1.325,0.547 -0.81,0.393 -1.594,0.868 -2.318,1.416 -4.121,3.124 -6.673,9.083 -3.986,13.937"
         style="fill:#88d6f6;fill-opacity:1;fill-rule:nonzero;stroke:none"
         id="path104" />
    </g>
    <g
       id="g106"
       transform="translate(246.995,53.553)">
      <path
         d="M 0,0 0.369,-1.557 C 0.473,-2.002 0.19,-2.363 -0.266,-2.363"
         style="fill:#ffffff;fill-opacity:1;fill-rule:nonzero;stroke:none"
         id="path108" />
    </g>
    <g
       id="g110"
       transform="translate(217.358,56.226)">
      <path
         d="M 0,0 C -0.093,-0.431 -0.205,-0.976 -0.279,-1.337 L -3.53,-16.552 -0.111,-0.522 0,0"
         style="fill:#ffffff;fill-opacity:1;fill-rule:nonzero;stroke:none"
         id="path112" />
    </g>
    <g
       id="g114"
       transform="translate(119.963,46.043)">
      <path
         d="M 0,0 -1.796,-6.358 0,-0.002 V 0"
         style="fill:#ffffff;fill-opacity:1;fill-rule:nonzero;stroke:none"
         id="path116" />
    </g>
    <g
       id="g118"
       transform="translate(247.364,51.996)">
      <path
         d="M 0,0 -0.937,3.962 C -1.676,6.829 -3.77,8.184 -8.476,8.184 H -28.27 c -0.456,0 -0.911,-0.206 -1.004,-0.652 l -7.509,-35.614 c -0.098,-0.45 -0.127,-0.77 -0.076,-0.993 0.053,-0.23 0.934,-0.187 1.385,-0.187 h 6.857 c 0.459,0 1.292,-0.034 1.534,0.064 0.254,0.104 0.366,0.783 0.459,1.232 l 2.423,12.488 2.96,13.851 c 0.096,0.444 0.544,0.808 1,0.808 l 19.606,0.013 C -0.183,-0.806 0.104,-0.444 0,0"
         style="fill:#ffffff;fill-opacity:1;fill-rule:nonzero;stroke:none"
         id="path120" />
    </g>
    <g
       id="g122">
      <g
         id="g124"
         clip-path="url(#clipPath128)">
        <g
           id="g130"
           transform="translate(275.255,66.434)">
          <path
             d="M 0,0 C -0.459,-0.005 -8.695,0 -8.695,0 -9.15,0 -9.736,-0.489 -9.99,-0.866 l -15.263,-22.455 c -0.26,-0.377 -0.555,-0.364 -0.656,0.08 l -1.128,4.922 c -0.096,0.446 -0.551,0.81 -1.014,0.81 h -9.81 c -0.451,0 -0.724,-0.377 -0.604,-0.818 l 4.397,-15.416 c 0.127,-0.442 0.138,-1.162 0.025,-1.604 l -2.05,-7.808 c -0.109,-0.443 0.171,-0.576 0.634,-0.576 h 9.686 c 0.455,0 0.926,0.131 1.037,0.576 l 2.052,7.918 c 0.112,0.441 0.429,1.042 0.701,1.41 L 2.926,-0.793 c 0.28,0.362 0.24,0.795 -0.215,0.795 L 0,0"
             style="fill:#ffffff;fill-opacity:1;fill-rule:nonzero;stroke:none"
             id="path132" />
        </g>
      </g>
    </g>
    <g
       id="g134"
       transform="translate(173.121,60.15)">
      <path
         d="m 0,0 h -8.854 c -0.451,0 -0.914,-0.159 -1.004,-0.606 l -2.926,-13.692 -2.915,-13.11 c -0.093,-0.445 -0.545,-0.414 -1.001,-0.414 h -5.818 c -5.756,0 -5.092,3.636 -3.908,9.088 0.014,0.054 3.691,18.128 3.691,18.128 C -22.653,-0.161 -22.952,0 -23.403,0 h -8.435 c -0.455,0 -0.908,-0.161 -0.996,-0.606 l -3.394,-18.115 c -1.692,-9.795 -1.743,-18.413 9.615,-18.697 0.187,-0.007 17.935,0 17.935,0 0.459,0 0.91,0.15 1.008,0.592 l 3.851,18.166 3.837,18.242 C 0.018,-0.418 0.154,0 0,0"
         style="fill:#ffffff;fill-opacity:1;fill-rule:nonzero;stroke:none"
         id="path136" />
    </g>
    <g
       id="g138"
       transform="translate(84.937,60.18)">
      <path
         d="m 0,0 h -9.492 c -0.455,0 -0.914,-0.108 -1.015,-0.556 l -1.713,-7.411 c -0.097,-0.439 0.194,-0.789 0.653,-0.789 h 9.089 c 0.459,0 0.914,0.414 1.011,0.856 l 1.65,7.467 C 0.183,-0.433 0.315,0 0,0"
         style="fill:#ffffff;fill-opacity:1;fill-rule:nonzero;stroke:none"
         id="path140" />
    </g>
    <g
       id="g142"
       transform="translate(72.754,48.925)">
      <path
         d="m 0,0 c -0.452,0 -0.915,-0.36 -1.012,-0.806 l -1.28,-5.653 -2.856,-13.054 c 0,0 -1.519,-6.94 -1.664,-7.374 0,0 -1.279,-5.011 -4.336,-4.81 -1.421,0.094 -3.047,0.42 -3.047,0.42 h -0.004 c -0.854,0.258 -0.914,-0.629 -1.019,-1.072 l -1.884,-8.133 c -0.109,-0.445 0.183,-0.846 0.634,-0.851 0,0 4.087,-0.577 6.972,-0.577 h 0.475 c 7.128,0 10.894,4.192 13.302,15.574 l 2.822,13.173 2.646,12.258 c 0.097,0.446 -0.172,0.86 -0.627,0.86"
         style="fill:#ffffff;fill-opacity:1;fill-rule:nonzero;stroke:none"
         id="path144" />
    </g>
    <g
       id="g146"
       transform="translate(199.732,44.566)">
      <path
         d="m 0,0 c 0,-0.495 -1.563,-0.4 -1.563,-0.4 l -12.447,0.09 c -0.43,0 -0.553,0.603 -0.583,1.034 -10e-4,0.015 0.031,0.517 0.068,0.642 0.962,3.337 3.833,5.244 8.383,5.244 5.12,0 6.214,-2.54 6.214,-5.356 m -4.281,14.415 c -15.967,0 -19.778,-9.869 -21.898,-19.65 -2.121,-9.973 -1.94,-17.856 14.581,-17.856 h 0.596 c 6.555,0 14.518,0 14.518,0 0.447,0.008 0.895,0.418 0.985,0.86 l 1.624,6.327 c 0.094,0.448 -0.209,0.58 -0.66,0.58 H -9.322 c -5.382,0 -7.309,1.658 -7.121,5.38 -0.004,0.424 0.481,1.503 0.936,1.503 H 7.381 c 1.005,0.005 1.037,0.593 1.037,0.593 2.33,10.516 2.482,22.263 -12.627,22.263"
         style="fill:#ffffff;fill-opacity:1;fill-rule:nonzero;stroke:none"
         id="path148" />
    </g>
    <g
       id="g150"
       transform="translate(118.082,39.685)">
      <path
         d="M 0,0 -1.84,-6.289 C -1.967,-6.73 -2.486,-7.024 -2.942,-7.024 h -9.492 c -7.203,0 -8.954,5.566 -7.203,13.873 1.758,8.491 5.241,13.745 12.325,14.277 9.686,0.729 11.668,-6.11 9.32,-13.973 z m 8.435,-6.664 c 0,0 4.472,10.863 5.486,17.141 1.389,8.402 -2.814,20.587 -19.065,20.587 -16.154,0 -23.164,-11.633 -25.847,-24.28 -2.672,-12.739 0.826,-23.83 16.891,-23.74 l 24.52,0.015 c 0.452,0.002 0.923,0.367 1.039,0.802 l 2.067,7.871 c 0.112,0.445 -0.168,0.805 -0.627,0.807 l -1.975,0.015 -1.974,0.009 c -0.388,0.003 -0.612,0.255 -0.56,0.589 0.007,0.061 0.015,0.121 0.045,0.184"
         style="fill:#ffffff;fill-opacity:1;fill-rule:nonzero;stroke:none"
         id="path152" />
    </g>
  </g>
</svg>
