<svg xmlns="http://www.w3.org/2000/svg" xmlns:xlink="http://www.w3.org/1999/xlink" version="1.1" id="Layer_1" x="0px" y="0px" style="enable-background:new 0 0 148 147;" xml:space="preserve" viewBox="0.4 -0.1 147.4 147">
<style type="text/css">
	.st0{fill:#3BE081;}
	.st1{fill:#0037FF;}
	.st2{fill:#00CCFF;}
	.st3{fill:#861DFF;}
	.st4{fill:#FC7F10;}
</style>
<path class="st0" d="M49.5,80.6v17.7c27.2,0,49.3-22.1,49.3-49.4H81.2C81.1,66.4,67,80.5,49.5,80.6z"/>
<path class="st1" d="M49.5,129.3c-17.4,0-31.4-14.1-31.4-31.4s14-31.5,31.4-31.5l0,0V48.9c-27.1-0.1-49,21.8-49.1,48.9  c0,27.1,21.9,49,48.9,49.1h0.2V129.3z"/>
<path class="st2" d="M49.5,129.3v17.6c27.1,0,49-21.9,49-49l0,0H80.9C80.9,115.2,66.8,129.3,49.5,129.3z"/>
<path class="st3" d="M49.5,31.3v17.6c27.1,0,49-21.9,49-49l0,0H80.9C80.9,17.2,66.8,31.3,49.5,31.3z"/>
<path class="st4" d="M98.8,31.3v17.6c27.1,0,49-21.9,49-49l0,0h-17.6C130.2,17.2,116.1,31.3,98.8,31.3z"/>
</svg>